<?xml version="1.0" encoding="UTF-8" standalone="no"?>
<svg width="800px" height="450px" viewBox="0 0 800 450" version="1.1" xmlns="http://www.w3.org/2000/svg" xmlns:xlink="http://www.w3.org/1999/xlink" xmlns:sketch="http://www.bohemiancoding.com/sketch/ns">
    <!-- Generator: Sketch 3.4.4 (17249) - http://www.bohemiancoding.com/sketch -->
    <title>meta</title>
    <desc>Created with Sketch.</desc>
    <defs>
    	<defs>
            <linearGradient x1="19.584083%" y1="10.3112998%" x2="76.5191939%" y2="75.8711162%" id="gradient" gradientUnits="userSpaceOnUse">
                  <stop stop-color="#238CE8" offset="0%"></stop>
                  <stop stop-color="#B77EED" offset="100%"></stop>
            </linearGradient>
      </defs>
    </defs>
    <g stroke="none" stroke-width="1" fill="none" fill-rule="evenodd">
        <g fill="url(#gradient)">
            <g transform="translate(225.000000, 127.000000)">
                <rect x="0" y="93" width="333" height="16"></rect>
                <rect x="0" y="64" width="349.257979" height="16"></rect>
                <rect x="0" y="32" width="329.26001" height="16"></rect>
                <rect x="0" y="125" width="348" height="16"></rect>
                <rect x="0" y="0" width="344.320007" height="16"></rect>
                <rect x="0" y="157" width="328.3025" height="16"></rect>
            </g>
            <path d="M192,159.0625 L192,126.005965 C192,124.890762 191.107243,124 190.00597,124 L33.9940296,124 C32.8998141,124 32,124.898101 32,126.005965 L32,211.994035 C32,213.109238 32.8927575,214 33.9940296,214 L190.00597,214 C191.100186,214 192,213.101899 192,211.994035 L192,173.9375 L199,166.5 L192,159.0625 Z M47,139 L167,139 L167,148 L47,148 L47,139 Z M47,156 L177,156 L177,165 L47,165 L47,156 Z M47,173 L159,173 L159,182 L47,182 L47,173 Z M47,190 L121,190 L121,199 L47,199 L47,190 Z"></path>
            <path d="M309.0625,336 L266.995376,336 C265.893855,336 265,336.891147 265,337.990433 L265,407.009567 C265,408.103347 265.89336,409 266.995376,409 L500.004624,409 C501.106145,409 502,408.108853 502,407.009567 L502,337.990433 C502,336.896653 501.10664,336 500.004624,336 L323.9375,336 L316.5,329 L309.0625,336 Z M280,351 L460,351 L460,360 L280,360 L280,351 Z M280,368 L482,368 L482,377 L280,377 L280,368 Z M280,385 L354,385 L354,394 L280,394 L280,385 Z"></path>
            <path d="M375.9375,104 L403.995159,104 C405.104697,104 406,103.108853 406,102.009567 L406,32.9904333 C406,31.896653 405.102402,31 403.995159,31 L319.004841,31 C317.895303,31 317,31.8911474 317,32.9904333 L317,102.009567 C317,103.103347 317.897598,104 319.004841,104 L361.0625,104 L368.5,111 L375.9375,104 Z M332,46 L382,46 L382,55 L332,55 L332,46 Z M332,63 L395,63 L395,72 L332,72 L332,63 Z M332,80 L378,80 L378,89 L332,89 L332,80 Z"></path>
            <path d="M596,271.9375 L596,355.002032 C596,356.10789 596.892757,357 597.99403,357 L754.00597,357 C755.100186,357 756,356.105479 756,355.002032 L756,234.997968 C756,233.89211 755.107243,233 754.00597,233 L597.99403,233 C596.899814,233 596,233.894521 596,234.997968 L596,257.0625 L589,264.5 L596,271.9375 Z M611,248 L723,248 L723,257 L611,257 L611,248 Z M611,265 L734,265 L734,274 L611,274 L611,265 Z M611,282 L742,282 L742,291 L611,291 L611,282 Z M611,316 L742,316 L742,325 L611,325 L611,316 Z M611,299 L715,299 L715,308 L611,308 L611,299 Z M611,333 L715,333 L715,342 L611,342 L611,333 Z"></path>
            <path d="M596,142.9375 L596,160.00693 C596,161.097692 596.892832,162 597.994195,162 L737.005805,162 C738.105455,162 739,161.107672 739,160.00693 L739,107.99307 C739,106.902308 738.107168,106 737.005805,106 L597.994195,106 C596.894545,106 596,106.892328 596,107.99307 L596,128.0625 L589,135.5 L596,142.9375 Z M611,121 L692,121 L692,130 L611,130 L611,121 Z M611,138 L715,138 L715,147 L611,147 L611,138 Z"></path>
        </g>
    </g>
</svg>
