<?xml version="1.0" encoding="UTF-8" standalone="no"?>
<svg width="287px" height="80px" viewBox="0 0 287 80" version="1.1" xmlns="http://www.w3.org/2000/svg" xmlns:xlink="http://www.w3.org/1999/xlink" xmlns:sketch="http://www.bohemiancoding.com/sketch/ns">
    <title>Group</title>
    <defs></defs>
    <g stroke="none" stroke-width="1" fill="none" fill-rule="evenodd">
        <g fill="#181818" transform="translate(0 15)">
            <g transform="translate(0 5)">
              <path d="M263.171875,0.02734375 L263.171875,18.34375 C265.375011,13.7265394 269.031224,11.4179688 274.140625,11.4179688 C277.890644,11.4179688 280.820302,12.4726457 282.929688,14.5820312 C285.039073,16.6914168 286.09375,20.0077899 286.09375,24.53125 L286.09375,49 L279.589844,49 L279.589844,25.234375 C279.589844,22.3984233 279.039068,20.2539135 277.9375,18.8007812 C276.835932,17.3242114 274.949232,16.5859375 272.277344,16.5859375 C269.582018,16.5859375 267.390633,17.6054586 265.703125,19.6445312 C264.015617,21.6836039 263.171875,24.3202963 263.171875,27.5546875 L263.171875,49 L256.703125,49 L256.703125,0.02734375 L263.171875,0.02734375 Z" id="polysoph"></path>
              <animateTransform
                attributeName="transform"
                attributeType="XML"
                type="translate"
                from="0 5"
                to="0 5"
                begin="0s"
                dur="8s"
                values="0 5;0 0;0 5"
                keySplines="
                  0.42 0.0 0.58 1;
                  0.42 0.0 0.58 1"
                keyTimes="0;0.55;1"
                calcMode="spline"
                repeatCount="indefinite"
                />
            </g>
            <g transform="translate(0 -3)">
              <path d="M220.851562,61.234375 L214.382812,61.234375 L214.382812,12.296875 L220.851562,12.296875 L220.851562,18.2734375 C223.242199,13.7031021 227.156223,11.4179688 232.59375,11.4179688 C237.304711,11.4179688 240.902331,13.2226382 243.386719,16.8320312 C245.894544,20.4179867 247.148438,25.0234094 247.148438,30.6484375 C247.148438,36.2734656 245.906262,40.890607 243.421875,44.5 C240.937488,48.109393 237.328149,49.9023439 232.59375,49.8789062 C227.17966,49.8789062 223.265637,47.5937729 220.851562,43.0234375 L220.851562,61.234375 Z M220.851562,27.5546875 L220.851562,33.7421875 C220.851562,37.0000163 221.742179,39.6367087 223.523438,41.6523438 C225.304696,43.6679788 227.67186,44.6757812 230.625,44.6757812 C233.57814,44.6523436 235.933585,43.8671952 237.691406,42.3203125 C239.449228,40.7734298 240.316406,38.7812622 240.292969,36.34375 L240.292969,24.953125 C240.292969,22.5156128 239.42579,20.5117266 237.691406,18.9414062 C235.933585,17.3710859 233.57814,16.5859375 230.625,16.5859375 C227.67186,16.5859375 225.304696,17.5937399 223.523438,19.609375 C221.742179,21.6250101 220.851562,24.2734211 220.851562,27.5546875 L220.851562,27.5546875 Z"></path>
              <animateTransform
                attributeName="transform"
                attributeType="XML"
                type="translate"
                from="0 -3"
                to="0 -3"
                begin="0s"
                dur="7s"
                values="0 -3;0 2;0 -3"
                keySplines="
                  0.42 0.0 0.58 1;
                  0.42 0.0 0.58 1"
                keyTimes="0;0.55;1"
                calcMode="spline"
                repeatCount="indefinite"
                />
            </g>
            <g transform="translate(0 2)">
              <path d="M198.042969,36.34375 L198.042969,24.953125 C198.042969,22.5156128 197.105478,20.5117266 195.230469,18.9414062 C193.355459,17.3710859 191.082045,16.5859375 188.410156,16.5859375 C185.738268,16.5859375 183.453134,17.3710859 181.554688,18.9414062 C179.679678,20.5117266 178.742188,22.5156128 178.742188,24.953125 L178.742188,36.34375 C178.742188,38.7812622 179.679678,40.7851484 181.554688,42.3554688 C183.429697,43.9257891 185.71483,44.7109375 188.410156,44.7109375 C191.082045,44.7109375 193.355459,43.9140705 195.230469,42.3203125 C197.105478,40.7734298 198.042969,38.7812622 198.042969,36.34375 L198.042969,36.34375 Z M204.898438,30.6484375 C204.898438,36.5078418 203.50392,41.1718577 200.714844,44.640625 C197.925767,48.1093923 193.824246,49.84375 188.410156,49.84375 C183.019504,49.84375 178.917983,48.1093923 176.105469,44.640625 C173.292955,41.1718577 171.898437,36.5078418 171.921875,30.6484375 C171.921875,24.7890332 173.304674,20.1132987 176.070312,16.6210938 C178.859389,13.1523264 182.972629,11.4179688 188.410156,11.4179688 C193.847683,11.4414064 197.949205,13.1874827 200.714844,16.65625 C203.50392,20.1250173 204.898438,24.7890332 204.898438,30.6484375 L204.898438,30.6484375 Z"></path>
              <animateTransform
                attributeName="transform"
                attributeType="XML"
                type="translate"
                from="0 -3"
                to="0 -3"
                begin="0s"
                dur="9s"
                values="0 2;0 5;0 2"
                keySplines="
                  0.42 0.0 0.58 1;
                  0.42 0.0 0.58 1"
                keyTimes="0;0.55;1"
                calcMode="spline"
                repeatCount="indefinite"
                />
            </g>
            <g transform="translate(0 5)">
              <path d="M164.792969,38.9804688 C164.792969,42.0507966 163.433607,44.6288958 160.714844,46.7148438 C157.99608,48.8007917 154.492209,49.84375 150.203125,49.84375 C145.914041,49.84375 142.375014,48.7656358 139.585938,46.609375 C136.796861,44.4531142 135.378906,41.3828324 135.332031,37.3984375 L141.835938,37.3984375 C141.882813,39.7421992 142.714836,41.5468687 144.332031,42.8125 C145.972664,44.0546937 147.941395,44.6757812 150.238281,44.6757812 C152.535168,44.6757812 154.457024,44.17188 156.003906,43.1640625 C157.550789,42.156245 158.324219,40.8320395 158.324219,39.1914062 C158.324219,37.5273354 157.832036,36.2734417 156.847656,35.4296875 C155.863276,34.5859333 154.164075,33.9296898 151.75,33.4609375 L145.703125,32.2304688 C139.421844,30.9413998 136.28125,27.4844031 136.28125,21.859375 C136.28125,18.8827976 137.546862,16.3984475 140.078125,14.40625 C142.632825,12.4140525 145.832012,11.4179688 149.675781,11.4179688 C153.51955,11.4179688 156.800768,12.4140525 159.519531,14.40625 C162.238295,16.3984475 163.609375,19.3398243 163.632812,23.2304688 L157.164062,23.2304688 C157.117187,20.9570199 156.414069,19.2812554 155.054688,18.203125 C153.671868,17.1249946 151.949229,16.5859375 149.886719,16.5859375 C147.824208,16.5859375 146.101569,17.0781201 144.71875,18.0625 C143.335931,19.0468799 142.644531,20.2656177 142.644531,21.71875 C142.644531,23.1718823 143.042965,24.3085896 143.839844,25.1289062 C144.66016,25.9257852 145.984366,26.5117169 147.8125,26.8867188 L154,28.1875 C161.195348,29.6640699 164.792969,33.2616902 164.792969,38.9804688 L164.792969,38.9804688 Z"></path>
              <animateTransform
                attributeName="transform"
                attributeType="XML"
                type="translate"
                from="0 5"
                to="0 5"
                begin="0s"
                dur="10s"
                values="0 5;0 -1;0 5"
                keySplines="
                  0.42 0.0 0.58 1;
                  0.42 0.0 0.58 1"
                keyTimes="0;0.55;1"
                calcMode="spline"
                repeatCount="indefinite"
                />
            </g>
            <g transform="translate(0 1)">
              <path d="M100.324219,61.234375 L100.324219,55.6796875 L108.761719,55.6796875 L111.082031,49 L97.4414062,12.296875 L104.4375,12.296875 L114,41.0195312 L114.316406,41.0195312 L124.160156,12.296875 L130.875,12.296875 L112.875,61.234375 L100.324219,61.234375 Z"></path>
              <animateTransform
                attributeName="transform"
                attributeType="XML"
                type="translate"
                from="0 1"
                to="0 1"
                begin="0s"
                dur="10s"
                values="0 1;0 -2;0 1"
                keySplines="
                  0.42 0.0 0.58 1;
                  0.42 0.0 0.58 1"
                keyTimes="0;0.55;1"
                calcMode="spline"
                repeatCount="indefinite"
                />
            </g>
            <g transform="translate(0 -4)">
              <path d="M89.6796875,49 L83.2109375,49 L83.2109375,0.02734375 L89.6796875,0.02734375 L89.6796875,49 Z"></path>
              <animateTransform
                attributeName="transform"
                attributeType="XML"
                type="translate"
                from="0 -4"
                to="0 -4"
                begin="0s"
                dur="7s"
                values="0 -4;0 -1;0 -4"
                keySplines="
                  0.42 0.0 0.58 1;
                  0.42 0.0 0.58 1"
                keyTimes="0;0.55;1"
                calcMode="spline"
                repeatCount="indefinite"
                />
            </g>
            <g transform="translate(0 -3)">
              <path d="M73.5859375,30.6484375 C73.5859375,36.5078418 72.1914202,41.1718577 69.4023438,44.640625 C66.6132673,48.1093923 62.5117458,49.84375 57.0976562,49.84375 C51.7070043,49.84375 47.6054828,48.1093923 44.7929687,44.640625 C41.9804547,41.1718577 40.5859374,36.5078418 40.609375,30.6484375 C40.609375,24.7890332 41.9921737,20.1132987 44.7578125,16.6210938 C47.5468889,13.1523264 51.6601291,11.4179688 57.0976562,11.4179688 C62.5351834,11.4414064 66.6367049,13.1874827 69.4023438,16.65625 C72.1914202,20.1250173 73.5859375,24.7890332 73.5859375,30.6484375 L73.5859375,30.6484375 Z M66.7304688,36.34375 L66.7304688,24.953125 C66.7304688,22.5156128 65.7929781,20.5117266 63.9179688,18.9414062 C62.0429594,17.3710859 59.7695446,16.5859375 57.0976562,16.5859375 C54.4257679,16.5859375 52.1406345,17.3710859 50.2421875,18.9414062 C48.3671781,20.5117266 47.4296875,22.5156128 47.4296875,24.953125 L47.4296875,36.34375 C47.4296875,38.7812622 48.3671781,40.7851484 50.2421875,42.3554688 C52.1171969,43.9257891 54.4023303,44.7109375 57.0976562,44.7109375 C59.7695446,44.7109375 62.0429594,43.9140705 63.9179688,42.3203125 C65.7929781,40.7734298 66.7304688,38.7812622 66.7304688,36.34375 L66.7304688,36.34375 Z"></path>
              <animateTransform
                attributeName="transform"
                attributeType="XML"
                type="translate"
                from="0 -3"
                to="0 -3"
                begin="0s"
                dur="10s"
                values="0 -3;0 3;0 -3"
                keySplines="
                  0.42 0.0 0.58 1;
                  0.42 0.0 0.58 1"
                keyTimes="0;0.55;1"
                calcMode="spline"
                repeatCount="indefinite"
                />
            </g>
            <g transform="translate(0 -5)">
              <path d="M6.69140625,61.234375 L0.22265625,61.234375 L0.22265625,12.296875 L6.69140625,12.296875 L6.69140625,18.2734375 C9.0820432,13.7031021 12.9960666,11.4179688 18.4335938,11.4179688 C23.1445548,11.4179688 26.7421751,13.2226382 29.2265625,16.8320312 C31.7343875,20.4179867 32.9882812,25.0234094 32.9882812,30.6484375 C32.9882812,36.2734656 31.7461062,40.890607 29.2617188,44.5 C26.7773313,48.109393 23.1679924,49.9023439 18.4335938,49.8789062 C13.0195042,49.8789062 9.10548082,47.5937729 6.69140625,43.0234375 L6.69140625,61.234375 Z M6.69140625,27.5546875 L6.69140625,33.7421875 C6.69140625,37.0000163 7.58202234,39.6367087 9.36328125,41.6523438 C11.1445402,43.6679788 13.511704,44.6757812 16.4648438,44.6757812 C19.4179835,44.6523436 21.7734287,43.8671952 23.53125,42.3203125 C25.2890713,40.7734298 26.1562501,38.7812622 26.1328125,36.34375 L26.1328125,24.953125 C26.1328125,22.5156128 25.2656337,20.5117266 23.53125,18.9414062 C21.7734287,17.3710859 19.4179835,16.5859375 16.4648438,16.5859375 C13.511704,16.5859375 11.1445402,17.5937399 9.36328125,19.609375 C7.58202234,21.6250101 6.69140625,24.2734211 6.69140625,27.5546875 L6.69140625,27.5546875 Z"></path>
              <animateTransform
                attributeName="transform"
                attributeType="XML"
                type="translate"
                from="0 -5"
                to="0 -5"
                begin="0s"
                dur="15s"
                values="0 -5;0 6;0 -5"
                keySplines="
                  0.42 0.0 0.58 1;
                  0.42 0.0 0.58 1"
                keyTimes="0;0.55;1"
                calcMode="spline"
                repeatCount="indefinite"
                />
            </g>
        </g>
    </g>
</svg>
